HIERARCHY
ROOT Hips
{
	OFFSET 0.000000 0.000000 0.000000
	CHANNELS 6 Xposition Yposition Zposition Zrotation Yrotation Xrotation 
	JOINT LHipJoint
	{
		OFFSET 0.000000 0.000000 0.000000
		CHANNELS 3 Zrotation Yrotation Xrotation
		JOINT LeftUpLeg
		{
			OFFSET 1.363060 -1.794630 0.839290
			CHANNELS 3 Zrotation Yrotation Xrotation
			JOINT LeftLeg
			{
				OFFSET 2.448110 -6.726130 0.000000
				CHANNELS 3 Zrotation Yrotation Xrotation
				JOINT LeftFoot
				{
					OFFSET 2.562200 -7.039590 0.000000
					CHANNELS 3 Zrotation Yrotation Xrotation
					JOINT LeftToeBase
					{
						OFFSET 0.157640 -0.433110 2.322550
						CHANNELS 3 Zrotation Yrotation Xrotation
						End Site
						{
							OFFSET 0.000000 0.000000 0.000000
						}
					}
				}
			}
		}
	}
	JOINT RHipJoint
	{
		OFFSET 0.000000 0.000000 0.000000
		CHANNELS 3 Zrotation Yrotation Xrotation
		JOINT RightUpLeg
		{
			OFFSET -1.305520 -1.794630 0.839290
			CHANNELS 3 Zrotation Yrotation Xrotation
			JOINT RightLeg
			{
				OFFSET -2.542530 -6.985550 0.000000
				CHANNELS 3 Zrotation Yrotation Xrotation
				JOINT RightFoot
				{
					OFFSET -2.568260 -7.056230 0.000000
					CHANNELS 3 Zrotation Yrotation Xrotation
					JOINT RightToeBase
					{
						OFFSET -0.164730 -0.452590 2.363150
						CHANNELS 3 Zrotation Yrotation Xrotation
						End Site
						{
							OFFSET 0.000000 0.000000 0.000000
						}
					}
				}
			}
		}
	}
	JOINT LowerBack
	{
		OFFSET 0.000000 0.000000 0.000000
		CHANNELS 3 Zrotation Yrotation Xrotation
		JOINT Spine
		{
			OFFSET 0.028270 2.035590 -0.193380
			CHANNELS 3 Zrotation Yrotation Xrotation
			JOINT Spine1
			{
				OFFSET 0.056720 2.048850 -0.042750
				CHANNELS 3 Zrotation Yrotation Xrotation
				JOINT Neck
				{
					OFFSET 0.000000 0.000000 0.000000
					CHANNELS 3 Zrotation Yrotation Xrotation
					JOINT Neck1
					{
						OFFSET -0.054170 1.746240 0.172020
						CHANNELS 3 Zrotation Yrotation Xrotation
						JOINT Head
						{
							OFFSET 0.104070 1.761360 -0.123970
							CHANNELS 3 Zrotation Yrotation Xrotation
							End Site
							{
								OFFSET 0.000000 0.000000 0.000000
							}
						}
					}
				}
				JOINT LeftShoulder
				{
					OFFSET 0.000000 0.000000 0.000000
					CHANNELS 3 Zrotation Yrotation Xrotation
					JOINT LeftArm
					{
						OFFSET 3.362410 1.200890 -0.311210
						CHANNELS 3 Zrotation Yrotation Xrotation
						JOINT LeftForeArm
						{
							OFFSET 4.983000 -0.000000 -0.000000
							CHANNELS 3 Zrotation Yrotation Xrotation
							JOINT LeftHand
							{
								OFFSET 3.483560 -0.000000 -0.000000
								CHANNELS 3 Zrotation Yrotation Xrotation
								JOINT LeftFingerBase
								{
									OFFSET 0.000000 0.000000 0.000000
									CHANNELS 3 Zrotation Yrotation Xrotation
									JOINT LeftHandIndex1
									{
										OFFSET 0.715260 -0.000000 -0.000000
										CHANNELS 3 Zrotation Yrotation Xrotation
										End Site
										{
											OFFSET 0.000000 0.000000 0.000000
										}
									}
								}
								JOINT LThumb
								{
									OFFSET 0.000000 0.000000 0.000000
									CHANNELS 3 Zrotation Yrotation Xrotation
									End Site
									{
										OFFSET 0.000000 0.000000 0.000000
									}
								}
							}
						}
					}
				}
				JOINT RightShoulder
				{
					OFFSET 0.000000 0.000000 0.000000
					CHANNELS 3 Zrotation Yrotation Xrotation
					JOINT RightArm
					{
						OFFSET -3.136600 1.374050 -0.404650
						CHANNELS 3 Zrotation Yrotation Xrotation
						JOINT RightForeArm
						{
							OFFSET -5.241900 -0.000000 -0.000000
							CHANNELS 3 Zrotation Yrotation Xrotation
							JOINT RightHand
							{
								OFFSET -3.444170 -0.000000 -0.000000
								CHANNELS 3 Zrotation Yrotation Xrotation
								JOINT RightFingerBase
								{
									OFFSET 0.000000 0.000000 0.000000
									CHANNELS 3 Zrotation Yrotation Xrotation
									JOINT RightHandIndex1
									{
										OFFSET -0.622530 -0.000000 -0.000000
										CHANNELS 3 Zrotation Yrotation Xrotation
										End Site
										{
											OFFSET 0.000000 0.000000 0.000000
										}
									}
								}
								JOINT RThumb
								{
									OFFSET 0.000000 0.000000 0.000000
									CHANNELS 3 Zrotation Yrotation Xrotation
									End Site
									{
										OFFSET 0.000000 0.000000 0.000000
									}
								}
							}
						}
					}
				}
			}
		}
	}
}
MOTION
Frames: 8
Frame Time: 0.033333
2.146254 22.366587 -9.479117 4.782994 -3.352629 17.018125 -9.035338 0.445534 4.953371 -7.165788 -16.583913 -59.061261 1.031249 2.529564 47.862859 1.921476 11.117986 33.544762 -0.247110 -0.198844 -45.785328 12.208106 -1.640771 4.396827 5.051068 1.191643 -23.614339 1.169042 -7.334304 22.141005 -0.749634 -9.751861 20.954395 0.810446 -0.003562 -57.252381 -10.333990 15.953843 -10.039992 -0.634322 -2.900542 -3.801833 -3.901209 -2.806628 5.863677 4.426687 -8.648756 -8.877324 -2.259736 -0.326318 0.080257 -0.032213 -0.010984 0.041338 1.085160 12.489078 -4.437941 -58.763509 -18.566216 14.715563 141.352678 -81.970403 -139.088925 19.924615 -9.247919 -1.710910 -0.249669 0.498742 -0.004125 -0.058226 -0.062194 0.008356 -0.036961 0.055573 -0.031685 -9.324752 -12.731469 -16.533955 63.001906 20.287657 -28.634070 39.782935 83.742715 38.810422 -14.989335 11.896369 -1.649967 0.311937 -0.691486 -0.063760 0.052527 0.026069 -0.047214 0.016055 -0.024738 0.044247 
2.102694 22.654238 -9.118564 3.589882 -1.159970 19.261586 -7.441788 2.454004 5.912082 -7.545310 -20.508946 -66.943875 4.268408 2.473179 55.228187 2.063980 1.930319 7.456156 -0.330843 -0.174256 -46.228649 10.427409 -2.773302 2.798393 8.280481 4.860376 -26.842656 0.082675 -9.509715 35.735254 -1.742874 -5.196092 5.707489 0.787094 0.016693 -58.483613 -9.840738 15.164493 -13.026766 0.534868 -3.460130 -3.413295 -4.079066 -2.536415 6.092408 4.973256 -9.611034 -9.501334 -2.332082 -0.325512 0.036839 -0.029841 -0.006585 0.052316 2.960235 11.864490 -3.526294 -56.518895 -17.200953 9.475951 161.628737 -77.050829 -159.756208 20.024612 -9.317853 -1.725849 -0.165094 0.447316 -0.024581 -0.058699 -0.060544 0.000573 -0.035801 0.043822 -0.026968 -9.070470 -19.885975 -10.307850 64.301295 20.755945 -26.472974 59.229848 85.952412 58.913222 -14.833308 12.047016 -1.669578 0.287938 -0.766587 -0.076480 0.061220 0.016122 -0.044390 0.014457 -0.042474 0.044216 
2.059604 22.805865 -8.761019 4.181968 0.199687 20.369387 -7.535529 2.813311 6.084953 -10.412059 -21.474302 -69.746490 5.901331 0.935328 65.896858 2.542239 -2.964203 -8.858997 -0.678397 -0.098242 -46.084354 11.025078 -3.935461 2.411722 6.893658 7.439330 -31.534348 -2.290417 -9.851485 51.414703 -2.801723 -2.252887 -5.746294 1.162085 -0.014834 -58.131443 -8.203938 9.912850 -12.650784 0.042602 -2.245391 -3.397515 -4.374276 -3.451528 5.378905 5.886996 -10.133904 -10.060695 -2.404631 -0.322938 -0.224806 -0.029376 0.009028 0.050538 5.124771 12.678673 -1.225111 -54.188509 -17.059748 2.695780 170.753660 -75.329112 -168.972828 20.473400 -9.886250 -1.881800 -0.124695 0.453916 -0.030850 -0.057235 -0.054612 -0.004990 -0.042257 0.043368 -0.027681 -5.661687 -22.676904 -3.579752 65.407914 21.338971 -22.985196 110.622237 87.175154 111.304586 -14.574178 12.660187 -1.739095 0.296413 -0.851381 -0.094330 0.072692 0.011918 -0.040378 0.008620 -0.053119 0.050767 
2.002945 22.820349 -8.356491 5.294708 1.021791 21.292074 -8.398919 3.402765 6.182345 -10.749975 -21.973000 -71.015467 7.047724 2.395701 72.683738 2.843281 -3.403496 -12.046008 -0.784656 -0.090160 -45.412341 11.431053 -4.463241 2.580290 4.291381 9.616154 -38.560099 -5.808594 -11.916249 69.666975 -3.406834 -2.975930 -9.912260 1.357702 -0.021026 -57.596548 -8.216230 6.137468 -11.988149 -0.055626 -2.781354 -3.346123 -4.592715 -2.555665 5.295756 7.189145 -10.771939 -10.106320 -2.240031 -0.307350 -0.420936 -0.030618 0.031341 0.047421 6.614849 12.016589 -0.695625 -53.174903 -16.606680 -3.160140 169.295346 -76.924808 -167.255671 21.083389 -10.128992 -1.998189 -0.074918 0.402639 -0.026217 -0.047636 -0.047256 -0.007382 -0.055451 0.048918 -0.035379 -1.975651 -25.888921 0.781321 65.571189 22.673545 -17.920674 157.738606 86.609744 159.347388 -14.815337 13.560289 -1.892436 0.340960 -0.860900 -0.102164 0.078346 0.010803 -0.034952 0.009557 -0.060556 0.045709 
1.930119 22.656767 -7.889208 6.381226 1.009370 19.385702 -8.322708 4.930186 5.983803 -11.957331 -21.970916 -65.524656 7.696595 4.470586 72.757205 3.047640 -4.943777 -15.758915 -0.869361 -0.042309 -45.716193 11.749523 -4.533283 2.834676 0.977942 9.970879 -40.005384 -8.826512 -12.446203 80.910259 -3.522497 -3.519178 -14.331482 1.379550 -0.030181 -56.879611 -8.641601 2.001105 -9.443666 -0.667178 -2.238601 -2.509419 -5.061460 -1.280758 4.199740 8.412910 -11.128757 -10.007494 -1.942016 -0.274195 -0.432027 -0.012932 0.043962 0.034407 8.780845 11.789048 0.882323 -53.967255 -17.114697 -5.348956 165.227579 -81.864528 -163.496502 20.629456 -9.981266 -1.924453 -0.087321 0.457272 -0.007408 -0.021777 -0.042643 -0.001342 -0.056934 0.058245 -0.044739 0.405599 -26.600787 7.579901 65.563992 23.511038 -12.387680 173.251808 85.924747 175.448275 -14.386084 14.497029 -1.946217 0.347585 -0.712380 -0.098856 0.084415 0.011856 -0.019673 0.005229 -0.062093 0.045410 
1.857336 22.311363 -7.376458 7.581074 1.041148 17.982565 -8.116884 5.336417 5.172188 -15.072911 -19.376931 -56.571782 6.119585 3.277380 66.704917 2.781665 -5.216058 -14.862155 -0.750488 -0.001911 -46.718186 12.367040 -4.623825 4.791370 -1.555340 8.298910 -43.308819 -10.394149 -10.336778 83.378624 -3.457896 -3.800110 -15.739320 1.310550 -0.004627 -56.543524 -8.703251 -1.961664 -8.546497 -1.790130 -0.689491 -2.312097 -4.687816 -1.165467 3.693323 9.439510 -11.700816 -9.443931 -1.461266 -0.224612 -0.364436 -0.000411 0.056955 0.024826 8.446318 11.765643 2.127424 -53.848151 -16.656339 -5.991541 153.321335 -87.222972 -151.525702 19.926094 -9.824018 -1.845718 -0.176799 0.471092 0.011472 0.001502 -0.037688 -0.002223 -0.059485 0.073786 -0.054834 3.297885 -25.669481 13.867215 63.804689 23.750729 -7.731023 -158.758035 87.036524 -156.177546 -14.193309 15.201110 -2.008687 0.298370 -0.688552 -0.096237 0.090015 0.019041 -0.008955 0.006370 -0.059087 0.045653 
1.803332 21.812884 -6.838842 7.652155 0.200001 17.758185 -8.992076 5.693014 2.889669 -16.121062 -15.403347 -43.899893 4.058679 3.723131 51.534096 1.746086 -2.948714 -0.538368 0.038322 0.011244 -49.368889 12.661068 -3.237427 4.945679 -0.919158 5.392009 -39.489913 -9.049705 -7.305520 66.862314 -2.819045 -4.168900 -9.297910 0.910962 -0.047412 -57.403301 -9.269113 -0.949243 -8.703104 -2.404735 -1.737648 -2.917813 -5.399539 0.806489 3.334987 8.939574 -12.301107 -7.743760 -1.296157 -0.225936 0.123070 0.006523 0.066753 0.004209 7.569013 10.952382 2.068398 -52.759238 -15.103663 -3.678209 9.616090 -85.321912 -8.375108 19.327045 -9.219789 -1.704407 -0.170857 0.549294 0.023838 0.003278 -0.029399 -0.007750 -0.056606 0.085579 -0.060582 5.673763 -28.287600 15.506649 62.130243 21.220311 -5.512281 -99.330682 88.740753 -97.470505 -13.863648 15.357264 -1.993398 0.233930 -0.661383 -0.094637 0.085993 0.033449 -0.011728 0.000167 -0.045432 0.039643 
1.770503 21.144236 -6.285530 6.739739 -0.066755 14.631498 -10.520637 4.134217 2.484665 -14.244673 -8.157609 -30.824996 -2.010976 -2.206195 34.401932 1.653673 1.193211 19.730670 0.284436 0.142902 -52.824710 13.214154 -1.962811 6.215470 0.074112 2.056640 -32.896491 -5.872892 -3.353070 42.694671 -1.982457 -6.283567 3.097892 0.424331 -0.114972 -57.879505 -7.011115 0.553508 -6.353072 -2.588374 -1.704660 -3.419464 -5.864789 0.348036 3.001050 8.086539 -12.849184 -7.603980 -1.200410 -0.226651 0.105526 0.023027 0.070482 -0.018332 5.448037 10.865869 2.266426 -52.555330 -12.778048 -0.782077 1.006875 -78.758076 -0.600379 18.385184 -8.733791 -1.563444 -0.136840 0.604002 0.035099 -0.002063 -0.025019 -0.012255 -0.052700 0.092501 -0.059348 5.393791 -30.133944 16.852303 60.879008 18.303803 -4.962743 -36.183678 88.826145 -34.788845 -13.068314 15.496506 -1.903083 0.186539 -0.580645 -0.106153 0.086366 0.046387 -0.026276 -0.010351 -0.032817 0.031867 
